<svg id="Layer_1" data-name="Layer 1" xmlns="http://www.w3.org/2000/svg" xmlns:xlink="http://www.w3.org/1999/xlink" viewBox="0 0 182.01 238.46"><defs><style>.cls-1,.cls-5{fill:none;}.cls-2{clip-path:url(#clip-path);}.cls-3{fill:#007b90;}.cls-3,.cls-4,.cls-6,.cls-7,.cls-8{fill-rule:evenodd;}.cls-4{fill:#ed3e34;}.cls-5{stroke:#231f20;stroke-miterlimit:3.86;stroke-width:0.87px;}.cls-6{fill:#bdc2bd;}.cls-7{fill:#231f20;}.cls-8{fill:#db1a21;}</style><clipPath id="clip-path"><path class="cls-1" d="M39.24,142.9a71.38,71.38,0,1,1,101.06.38A71.33,71.33,0,0,1,39.24,142.9Z"/></clipPath></defs><g class="cls-2"><polygon class="cls-3" points="35.54 32.7 80.49 85.88 77.5 97.16 55.8 127.01 29.2 151.95 8.8 94.44 3.62 37 35.54 32.7"/><polygon class="cls-3" points="148.91 33.13 103.56 85.97 106.46 97.27 127.94 127.28 154.35 152.42 175.18 95.07 180.79 37.67 148.91 33.13"/><polygon class="cls-4" points="149.46 147 96.63 101.65 85.33 104.55 55.31 126.03 30.18 152.44 87.52 173.27 144.93 178.88 149.46 147"/><polygon class="cls-4" points="149.89 33.62 96.71 78.58 85.44 75.59 55.58 53.88 30.65 27.29 88.15 6.89 145.59 1.71 149.89 33.62"/></g><path class="cls-5" d="M39.24,142.9a71.38,71.38,0,1,1,101.06.38A71.33,71.33,0,0,1,39.24,142.9Z"/><path class="cls-6" d="M71.1,90.06C71,80.52,62.35,64.87,48.17,49.89S3.84,3.56,2.82,2.53a1.38,1.38,0,0,1,.07-2,1.37,1.37,0,0,1,2-.06c1,1,32.15,31.43,47,45.71s30.46,23,40,23.23c9.54-.14,25.2-8.76,40.18-22.93S178.45,2.12,179.48,1.1a1.38,1.38,0,0,1,2,.07,1.37,1.37,0,0,1,.06,2c-1,1-31.42,32.15-45.71,47s-23,30.46-23.23,40c.14,9.54,8.76,25.2,22.93,40.17s44.33,46.34,45.36,47.37a1.48,1.48,0,0,1-2.11,2.08c-1-1-32.15-31.42-47-45.71s-30.45-23-40-23.23c-9.55.14-25.21,8.76-40.18,22.93S5.28,178.17,4.25,179.19a1.38,1.38,0,0,1-2-.07,1.38,1.38,0,0,1-.05-2c1-1,31.42-32.15,45.71-47S70.89,99.61,71.1,90.06Z"/><path class="cls-7" d="M32.44,232.27l-.46,5a31.24,31.24,0,0,1-9,1.2q-11.52,0-17.28-6.37A22,22,0,0,1,0,216.66a23.27,23.27,0,0,1,6.52-16.43q6.48-6.89,17.4-6.84a24.57,24.57,0,0,1,6.35.93l-1,5.31a23.4,23.4,0,0,0-6.85-1.23q-8.1,0-12.3,5a18.48,18.48,0,0,0-4.23,12.26,18.15,18.15,0,0,0,4.77,12.7q4.8,5.31,13.3,5.34A33,33,0,0,0,32.44,232.27Z"/><path class="cls-7" d="M67.71,232.67l-.22,5.05-27-.1q.51-10.37.56-22.88,0-11.79-.4-20.69l25.3.1-.28,5q-9.21-.45-19.51-.48.18,5.19.15,14,8.89,0,15.86-.34l0,5Q54.76,217,46.32,217q0,8.61.24,16.14Q57.68,233.13,67.71,232.67Z"/><path class="cls-7" d="M102.74,232.94l-.22,4.92-26.34-.1q.43-8.26.49-22.89,0-12.59-.33-20.68l6.23,0q-.43,6.76-.48,20.68,0,11.45-.44,18.34Q91.69,233.26,102.74,232.94Z"/><path class="cls-8" d="M136.9,232.93l-.21,5-27-.1q.51-10.37.56-22.88,0-11.79-.39-20.69l25.3.1-.29,5q-9.21-.45-19.51-.48.18,5.19.15,14,8.89,0,15.86-.34l0,5q-7.43-.33-15.86-.37,0,8.61.24,16.14Q126.87,233.39,136.9,232.93Z"/><path class="cls-7" d="M177,238.14l-7.26,0q0-1.31-5-9.66a103.5,103.5,0,0,0-7.16-10.93h-.37a100,100,0,0,0-6.26,10.61q-4.45,8.33-4.46,9.89l-7,0q0-1,7.1-11.52t8.75-12v-.33q-1.8-2.06-7.39-10.3-5.76-8.52-5.76-9.39l7.2,0q0,1,4,7.78A76.78,76.78,0,0,0,159,210.9h.33a70.16,70.16,0,0,0,5.46-8.72q3.74-6.65,3.74-7.65l7.06,0q0,.94-6.16,9a126.25,126.25,0,0,1-8.1,9.91v.34a133.7,133.7,0,0,1,9,12.75Q177,236.8,177,238.14Z"/></svg>